<svg version="1.0" xmlns="http://www.w3.org/2000/svg" width="933.333" height="933.333" viewBox="0 0 700 700"><path d="M203 103c-16.3 5-29.7 16.3-36.4 30.5-2.1 4.3-3.9 8.5-4.1 9.4-.2.9-.9 3.8-1.5 6.6-.6 2.7-1.4 6.1-1.6 7.5-.3 1.4-1.1 5.2-2 8.5-.8 3.3-1.6 6.9-1.8 8-.2 1.1-.9 3.8-1.4 6-.6 2.2-1.3 5.1-1.6 6.5-1.1 5.5-3.4 15.7-4.4 19.5-.6 2.2-2.3 9.2-3.7 15.5-1.4 6.3-4.6 20-7.1 30.5-2.4 10.4-6.8 29.2-9.7 41.6l-5.2 22.7-10-3.3c-10-3.2-41.8-15.6-46.5-18-15.7-8.2-34.5-16.6-38.2-17.1-10-1.4-20.4 4.5-25.2 14.1C.5 295.6.2 297.7.4 303c.7 14.3 5 18 39.4 34.2 33.1 15.5 90.2 35 121.2 41.2 1.4.3 3.4.7 4.5 1 6.6 1.6 19.6 4.2 25.5 5.2 1.9.3 3.6.7 3.7.8.1.1.5 2.4.8 5.1 2.5 19.4 6.7 33.8 14.7 50.3l5.1 10.4-19.6 19.6c-63.5 63.8-75.1 75.8-77 80.2-2.7 6-2.6 14.6.2 20.3 2.8 5.8 24.1 27.1 29.9 29.9 6.2 2.9 15.2 2.9 21.2-.2 3.1-1.6 19-16.9 51.5-49.6l47-47.3 8.5 4.6c7.1 3.8 24.9 10.6 30.9 11.8.9.2 5.4 1.1 10.1 2.1 12 2.6 42 2.6 54 0 4.7-1 9.3-1.9 10.2-2.1.9-.2 5.8-1.8 11-3.5 29.6-10.2 55-29.1 73.7-54.9 13.7-19 23.8-44.9 26.6-68.1.4-3 1-5.8 1.3-6.2.4-.4 2.5-1 4.7-1.2 2.2-.3 5.1-.8 6.5-1.1 1.4-.3 3.6-.7 5-1 1.4-.3 3.6-.7 5-1 1.4-.3 3.9-.8 5.5-1.1 11.1-1.9 36.8-8.4 58-14.6 17.6-5 50.3-16.7 64-22.8 2.2-1 7.4-3.2 11.5-5 12.9-5.6 34.4-16.8 37.3-19.5 4.9-4.7 7.1-10.2 7.1-18 0-5.3-.5-8-2.1-11-4.8-8.9-12.4-13.6-22.2-13.7-5.2-.1-7.2.6-23.4 8.5-9.7 4.8-17.9 8.7-18.2 8.7-.4 0-3.2 1.2-6.3 2.6-10.3 4.7-19 8.1-40.7 15.5-7.3 2.5-8.1 2.6-8.7 1.1-.4-.9-6.6-27.4-13.7-58.7-7.2-31.4-14.6-64-16.6-72.5-1.9-8.5-4.7-20.6-6-26.8-4.7-20.9-8.8-29.5-19.1-39.2-11.2-10.4-25.2-16-40.2-16-9.9 0-12.2.7-67.2 19-26.1 8.7-49.5 16.4-51.9 17-5.1 1.4-18 1.7-23.1.5-1.9-.4-27.1-8.6-56-18.2l-52.5-17.6-11.5-.2c-8.6-.2-12.9.2-17 1.5z"/></svg>