<svg xmlns="http://www.w3.org/2000/svg" xmlns:xlink="http://www.w3.org/1999/xlink" viewBox="0 0 512 512"><circle fill="#121212" cx="256" cy="256" r="256"/><defs><circle id="a" cx="256" cy="256" r="235"/></defs><clipPath id="b"><use xlink:href="#a" overflow="visible"/></clipPath><ellipse clip-path="url(#b)" fill="#DDD" cx="256" cy="415" rx="200" ry="150"/><circle clip-path="url(#b)" fill="#DDD" cx="256" cy="150" r="80"/><path fill="#DBDADA" d="M373.43 93.66c-2.22-4.07-7.34-5.59-11.44-3.38-6.47 3.49-16.21 7.92-28.92 11.97l-13.11-57.14c-2.53-11.34-14.37-18-25.46-14.33l-32.14 10.65a19.812 19.812 0 01-12.46 0l-32.14-10.65c-11.07-3.68-22.91 3-25.46 14.33l-13.26 57.1c4.01 1.28 8.38 2.51 13 3.68-19.41-4.88-33.5-11.12-42.03-15.75-4.11-2.22-9.23-.71-11.44 3.35-2.24 4.07-.73 9.17 3.37 11.38 17.49 9.48 55.56 25.37 114.2 25.37 58.41 0 96.43-15.78 113.89-25.19 4.1-2.22 5.63-7.32 3.4-11.39z"/><path fill="#CCCBCB" d="M256.15 113.44c32.63 0 58.13-5.19 76.92-11.2L319.96 45.1c-1.66-7.44-7.35-12.79-14.18-14.61l-81.61 81.16c9.8 1.11 20.41 1.79 31.98 1.79z"/><path fill="#3D3D3D" d="M256.15 89.11c-29.79 0-53.55-4.33-71.79-9.65l-5.28 22.75c18.83 6.03 44.36 11.24 77.08 11.24 32.63 0 58.13-5.19 76.92-11.2l-5.22-22.77c-18.23 5.31-41.98 9.63-71.71 9.63z"/></svg>