<svg xmlns="http://www.w3.org/2000/svg" viewBox="0 0 96.96 18.72"><g fill="#f0f6f9"><path d="M8.067 8.524h.985c.2 0 .301.098.301.294v.219c0 .2-.128.3-.384.3h-.82c-.255 0-.383-.1-.383-.3v-.342c.045-.114.146-.171.3-.171zm.212 3.898h.43c.046 0 .103.057.171.171v.52c0 .04-.043.082-.13.123H8.41c-.2 0-.301-.1-.301-.3v-.343c0-.046.057-.102.17-.17zm.39-6.087c.37.018.554.075.554.171v.554c0 .06-.027.09-.082.09h-.52c-.196 0-.294-.102-.294-.302v-.171c.01-.228.123-.342.341-.342zm.424 4.931l.13.171v.473c-.06.113-.13.17-.212.17-.133-.054-.206-.112-.22-.17v-.473c.051-.113.15-.17.302-.17zm1.888-6.949h4.637c.064 0 .134.244.213.732.514 0 .772.114.772.342v.041l-.041.301c0 .123.272.194.814.212a.538.538 0 01.083.26V7.45c-.038.114-.166.17-.384.17h-.985c-.232 0-.35-.143-.35-.43v-.253c0-.041-.04-.084-.122-.13h-.472c-.046 0-.104-.057-.178-.171v-.39c0-.228-.097-.342-.294-.342h-2.75a5.67 5.67 0 00-.601.041c-.028-.027-.142-.041-.342-.041l-.13.17v.603c0 .04.043.084.13.13h.43c.228.027.342.128.342.301a1 1 0 01-.082.294c0 .146.128.219.383.219h1.929c.114.046.172.146.172.301v.342c0 .073.243.143.731.212a.73.73 0 01.082.342v.26c0 .04.043.084.13.13h.342c.155 0 .256.057.3.17v.343c0 .228.259.342.774.342.114 0 .171.157.171.472v.26c.009.054.04.082.089.082.018 0 .203-.014.554-.041l.13.17v1.334c0 .041-.057.098-.171.171h-.342c-.173.019-.26.062-.26.13v.171c0 .397-.1.596-.3.596a2.213 2.213 0 00-.343-.041c-.228 0-.342.227-.342.683a.679.679 0 01-.342.09H11.24c-.219 0-.349-.057-.39-.172v-.3a.36.36 0 00-.213-.342h-.3c-.228 0-.342-.258-.342-.774l-.301-.04h-.3c-.042 0-.086-.044-.13-.13v-.171l.389-.301c0-.238.013-.367.04-.39 0-.124-.127-.237-.382-.343v-.123c0-.104.385-.177 1.155-.218h.212c.114.04.172.17.172.39v.383c.018.086.134.13.349.13h.383l.17.17-.04.213v.26c0 .04.042.083.13.13h2.872c.17 0 .253-.115.253-.342v-.26c0-.046.06-.103.178-.171h.253c.228 0 .342-.087.342-.26v-.425c0-.045-.041-.089-.123-.13h-1.162c-.229 0-.342-.257-.342-.772l-.302-.042h-.3c-.115-.041-.172-.17-.172-.389V9.38c-.046-.114-.145-.171-.3-.171h-2.011c-.046 0-.106-.057-.178-.171v-.342c0-.2-.128-.301-.384-.301h-.26c-.114-.046-.17-.146-.17-.301V7.75c0-.041-.041-.084-.123-.13h-.349c-.229 0-.356-.144-.383-.43l.082-.042h.52c.04 0 .084-.043.13-.13v-.554c0-.073-.2-.132-.602-.178l-.048-.082v-.171c0-.087.243-.144.732-.171 0-.515.114-.773.341-.773h.391c.082 0 .139-.244.17-.732l.083-.041z"/><path d="M18.012 11.403h.13c.456 0 .685.114.685.343v.17c0 .283-.172.424-.514.424h-.684c-.287 0-.43-.141-.43-.423v-.09c0-.255.143-.383.43-.383a2.2 2.2 0 01.383-.041zm-.04-5.136c.254 0 .382.184.382.553v.172c0 .14-.128.212-.383.212h-.13c-.218 0-.346-.057-.382-.171v-.595c0-.114.17-.171.512-.171zm1.415-1.93h1.41c.195 0 .293.101.293.302v3.68c0 .173.117.26.349.26h4.275c.2 0 .301-.13.301-.39v-.855c0-.256-.1-.384-.3-.384h-.343c-.045 0-.103-.056-.171-.17v-.431c0-.046.057-.103.17-.171h.343c.2 0 .301-.128.301-.383V4.509c.045-.114.146-.171.3-.171h1.068c.155 0 .255.057.301.17v9.119c0 .341-.058.512-.17.512h-1.328c-.046 0-.102-.056-.17-.17v-2.525c0-.096.2-.152.6-.17.055-.133.083-.276.083-.432l-.041-.382h-.513c-.023 0-.123-.101-.3-.301H21.22c-.04 0-.084.043-.13.13v3.55c0 .155-.057.254-.17.3h-1.198c-.227 0-.342-.128-.342-.383V10.16l.041-.213h-1.238c-.219 0-.347-.057-.383-.17v-.473c0-.045.057-.102.171-.17h1.45c0-.023-.013-.11-.04-.26 0-.115.013-.171.04-.171l-.034-4.364zm.082 4.795c0 .137.014.279.041.425-.027.11-.04.239-.04.389h1.279c.227 0 .341-.086.341-.26v-.3c0-.17-.085-.254-.253-.254H19.47zm5.944 1.239h.22c.208 0 .323.043.341.13v.642c-.04.114-.17.171-.39.171h-.082c-.288 0-.431-.113-.431-.342v-.26c0-.227.114-.341.342-.341z"/><path d="M27.308 5.924h1.155c.229 0 .342.142.342.425-.013.255-.127.383-.342.383h-.895c-.26 0-.39-.142-.39-.424l-.042-.26.172-.124zm.814 4.707c.141.04.212.141.212.3v.253c0 .229-.158.342-.472.342-.229-.018-.342-.132-.342-.342v-.17c0-.228.086-.342.26-.342.154-.028.268-.041.342-.041zm.382-2.183h.473c.077 0 .134.128.171.384-.037.255-.094.382-.17.382h-.474c-.045 0-.102-.056-.17-.17v-.425c0-.045.056-.102.17-.17zm2.614-4.11h4.452c.046 0 .102.057.172.17v.343c0 .173.113.26.342.26.314 0 .471.114.471.342v.342c0 .04.041.084.123.13h.349c.15 0 .249.057.294.17v6.286c-.036.115-.164.171-.383.171h-.26c-.04 0-.082.043-.123.13v.342c0 .229-.215.343-.642.343-.115.05-.171.15-.171.3v.301c-.046.115-.147.171-.302.171h-4.411c-.123 0-.208-.214-.253-.642-.068-.115-.196-.171-.384-.171h-.3c-.115 0-.187-.258-.22-.774h-.341c-.215 0-.342-.056-.383-.17V9.384c.041-.113.168-.17.383-.17h.26c.04 0 .084-.042.13-.124v-.513c0-.04-.044-.084-.13-.13h-.26c-.215 0-.342-.056-.383-.17V6.094c.045-.113.145-.17.3-.17h.343c.04 0 .084-.044.13-.13v-.342c0-.228.184-.343.553-.343h.172c.063-.013.15-.257.26-.731l.212-.041zm-.26 2.612v4.576c0 .05.143.124.43.22l.09-.048h.123c.04 0 .083.043.13.13v.43c0 .197.1.294.3.294h2.613c.197 0 .294-.097.294-.294v-.341c0-.115.272-.188.814-.22a.475.475 0 00.09-.253v-1.326c0-.147.113-.29.342-.432v-.554c-.229-.14-.342-.298-.342-.471 0-.142-.044-.213-.131-.213h-.383c-.26 0-.39-.1-.39-.3v-.432c0-.04.057-.097.171-.17l.219.047c.342-.031.514-.088.514-.17v-.35c0-.168-.115-.253-.343-.253h-.39c-.04 0-.097-.056-.17-.17v-.472c0-.17-.085-.254-.254-.254h-1.627c-.885 0-1.328.071-1.328.213 0 .455-.143.683-.43.683-.21 0-.324.044-.342.13zm2.913 3.078h1.115c.197 0 .294.102.294.302 0 .342-.141.512-.424.512h-.903c-.255 0-.383-.1-.383-.3V10.2c.046-.114.147-.172.301-.172zm1.751-1.025c.133.054.206.111.22.17v.472c0 .041-.044.085-.131.131h-.171c-.041 0-.084-.044-.13-.13v-.473c.014-.059.085-.116.212-.17z"/><path d="M37.348 9.612h1.28c.04 0 .083.043.13.129v.514c0 .04-.044.082-.13.123h-1.28c-.113-.046-.17-.144-.17-.295v-.17c0-.156.057-.256.17-.301zm.473 2.052h.424c.045 0 .102.056.17.17v.424c-.073.142-.214.212-.423.212-.229 0-.343-.097-.343-.294v-.341c0-.046.058-.103.172-.171zm7.257-7.306c.2 0 .3.185.3.554l.13.212.294-.04h.219c.114 0 .172.17.172.512v.26c.009.055.036.082.082.082h.17c.343 0 .514.1.514.301v1.067c0 .228-.115.342-.342.342h-.342c-.055.01-.082.037-.082.082v.22c0 .337-.1.505-.302.505-.401 0-.601.087-.601.26 0 .37-.128.554-.383.554-.283 0-.425.057-.425.171v.213c0 .342-.1.513-.3.513-.343 0-.514.07-.514.212 0 .314-.1.471-.3.471H40.72c-.169 0-.253.115-.253.342v2.565c0 .22-.056.347-.17.383h-1.239c-.2 0-.3-.17-.3-.512v-2.689c0-.374.114-.56.341-.56.065 0 .121.015.171.047.242-.032.44-.047.596-.047h.39c.081-.028.122-.113.122-.254v-.252c0-.15-.04-.239-.123-.26h-1.074c-.282 0-.424-.172-.424-.514v-3.29c0-.228-.198-.342-.594-.342a.931.931 0 01-.09-.383c0-.255.144-.383.431-.383.142 0 .296-.113.465-.342h6.109zm-4.61 1.881v.937c0 .041-.044.085-.13.13h-.301c-.21 0-.325.044-.342.13v.595c.017.087.132.13.342.13h.3c.087.028.13.112.13.253v.554c0 .201.1.301.301.301h1.703c.26 0 .39-.14.39-.424 0-.287.242-.43.725-.43a.497.497 0 00.082-.254v-.3c.064-.142.208-.213.431-.213h1.068c.04 0 .097-.17.17-.513l.212-.04h.472c.114-.042.172-.172.172-.39v-.083c0-.21-.044-.324-.131-.342h-.43c-.197 0-.351-.1-.465-.3a2.298 2.298 0 00-.383-.042H40.85c-.255 0-.383.1-.383.301zm.471 1.067c.146 0 .258.071.336.212v.431c0 .146-.041.23-.123.253h-.603c-.04 0-.082-.043-.123-.13v-.04c0-.096.014-.167.041-.213l-.04-.26v-.04c0-.124.17-.195.512-.213zm3.715-1.108h.253c.209 0 .323.041.342.123v.602c0 .041-.057.098-.171.171h-.424c-.046 0-.103-.057-.172-.171v-.56c0-.042.058-.096.172-.165zM50.2 11.403h.13c.457 0 .685.114.685.343v.17c0 .283-.17.424-.514.424h-.683c-.287 0-.43-.141-.43-.423v-.09c0-.255.143-.383.43-.383a2.2 2.2 0 01.383-.041zm-.04-5.136c.256 0 .383.184.383.553v.172c0 .14-.127.212-.383.212h-.13c-.219 0-.347-.057-.383-.171v-.595c0-.114.17-.171.513-.171zm1.416-1.93h1.409c.196 0 .294.101.294.302v3.68c0 .173.116.26.348.26h4.276c.2 0 .3-.13.3-.39v-.855c0-.256-.1-.384-.3-.384h-.342c-.046 0-.102-.056-.17-.17v-.431c0-.046.056-.103.17-.171h.342c.2 0 .3-.128.3-.383V4.509c.047-.114.146-.171.301-.171h1.068c.155 0 .255.057.3.17v9.119c0 .341-.056.512-.17.512h-1.327c-.046 0-.103-.056-.171-.17v-2.525c0-.096.2-.152.601-.17.055-.133.082-.276.082-.432l-.04-.382h-.513c-.023 0-.124-.101-.301-.301h-4.624c-.041 0-.084.043-.13.13v3.55c0 .155-.057.254-.171.3H51.91c-.228 0-.342-.128-.342-.383V10.16l.04-.213h-1.237c-.22 0-.346-.057-.383-.17v-.473c0-.045.057-.102.17-.17h1.45c0-.023-.013-.11-.04-.26 0-.115.014-.171.04-.171l-.033-4.364zm.082 4.795c0 .137.013.279.04.425-.027.11-.04.239-.04.389h1.279c.228 0 .342-.086.342-.26v-.3c0-.17-.084-.254-.253-.254h-1.368zm5.944 1.239h.219c.21 0 .323.043.342.13v.642c-.041.114-.171.171-.39.171h-.082c-.287 0-.432-.113-.432-.342v-.26c0-.227.115-.341.343-.341z"/><path d="M59.572 12.997h.8c.255 0 .383.098.383.294v.213c0 .195-.098.293-.295.293h-.977c-.15 0-.25-.054-.294-.164v-.342c0-.196.127-.294.383-.294zm.588-3.94h1.101c.2 0 .301.128.301.383v.041c0 .256-.142.383-.424.383h-.719c-.328 0-.512-.07-.553-.211v-.425c.046-.114.143-.17.294-.17zm.3 2.066h.082c.256 0 .384.098.384.294v.336c0 .044-.057.102-.17.17h-.425c-.197 0-.294-.098-.294-.293v-.302c.063-.137.205-.205.423-.205zm.446-6.026h.082c.255 0 .383.098.383.294v.335c0 .046-.058.103-.171.171h-.424c-.196 0-.295-.098-.295-.294v-.3c.064-.138.205-.206.425-.206zm.95-.78h7.62c.14.064.212.206.212.424v.848c0 .283-.169.424-.506.424h-5.8c-.17 0-.254.085-.254.254v1.99c0 .169.112.253.335.253h4.365c.109.046.164.144.164.294v.972c0 .282-.14.424-.417.424H63.25c-.04 0-.082.043-.123.13v1.86c0 .169.084.253.253.253h6.013c.195 0 .294.17.294.513v.76c0 .218-.071.36-.212.423h-7.62c-.15 0-.248-.056-.294-.17v-3.851c.014-.17.055-.254.123-.254h1.102c.227 0 .341-.084.341-.252v-.425c0-.04-.044-.084-.13-.13h-1.272c-.04 0-.096-.057-.164-.17V6.053c0-.113.169-.17.506-.17h.17c.055 0 .083-.028.083-.083v-.554c0-.04-.043-.082-.13-.123h-.253c-.214 0-.34-.056-.376-.17v-.466c.046-.114.144-.171.294-.171zm3.728 1.909h.082c.255 0 .383.098.383.294v.335c0 .046-.057.102-.17.171h-.425c-.197 0-.294-.098-.294-.294V6.43c.063-.137.205-.205.424-.205z"/><path d="M68.957 10.801h.683c.26 0 .39.101.39.301v.342c0 .046-.057.103-.171.172h-1.115c-.2 0-.301-.1-.301-.302v-.212c0-.2.17-.3.514-.3zm.683-1.368c.26 0 .39.099.39.294v.35c0 .04-.057.097-.171.17h-.43c-.202 0-.302-.1-.302-.301v-.3c0-.124.171-.194.513-.213zm.26-4.664h.985c.196 0 .294.098.294.294v.219c0 .196-.098.294-.294.294H69.9c-.155 0-.255-.057-.3-.171V4.94c.045-.114.145-.171.3-.171zm1.457-.431h6.245l.13.088-.041.295v.089c0 .228.255.342.766.342.086 0 .143.241.17.725l.22.047h.383c.113.046.17.144.17.295v1.074c0 .228-.113.341-.34.341h-.344c-.086.028-.13.112-.13.254v.342c0 .045-.056.102-.17.17h-.301c-.219 0-.36.074-.424.22v.3c0 .229-.229.342-.685.342-.068.142-.111.212-.13.212a.324.324 0 01.042.13c0 .251-.07.408-.212.473h-.342c-.201 0-.301.127-.301.383 0 .227.084.341.253.341l.3.041c.302-.027.546-.04.733-.04.228 0 .342.2.342.601 0 .228.14.343.424.343h.3c.046 0 .103.056.171.17v.342c.019.17.062.253.13.253h.254c.287 0 .43.115.43.342v.944c0 .228-.143.342-.43.342h-.766c-.342 0-.513-.1-.513-.3 0-.124-.201-.195-.603-.212-.054-.06-.11-.274-.17-.644a.604.604 0 01.383-.13h.26c.023 0 .065-.043.13-.13-.041-.141-.142-.212-.3-.212h-1.027c-.15 0-.238-.043-.26-.13v-.17c0-.311-.044-.465-.13-.465h-.17c-.344 0-.514-.1-.514-.302 0-.373-.07-.56-.212-.56-.228 0-.527-.014-.896-.042-.944.033-1.416.12-1.416.26v2.737c0 .2-.128.3-.383.3H71.7c-.347 0-.52-.1-.52-.3v-.897c0-.045.06-.103.178-.17h.342c.196 0 .294-.13.294-.39v-.124c0-.155-.057-.255-.171-.3h-.465c-.046 0-.105-.058-.178-.171V8.619c0-.159-.071-.26-.212-.3a3.594 3.594 0 01-.472.04c-.114-.036-.171-.15-.171-.341 0-.343.114-.513.343-.513h.39c.081-.028.122-.112.122-.253V5.754c0-.046.06-.105.178-.178h1.15c.15 0 .236-.041.26-.123v-.561c-.028-.082-.115-.123-.26-.123h-1.15c-.046 0-.105-.057-.178-.171v-.09c0-.045.06-.102.178-.17zm-.69 7.62h.218c.196 0 .294.1.294.3v.212c0 .202-.128.301-.383.301-.283 0-.424-.113-.424-.342v-.089c0-.255.098-.382.295-.382zm2.1-5.65v2.654c0 .168.085.252.259.252h2.093c.114 0 .184-.241.212-.725.488-.068.732-.154.732-.26 0-.396.113-.595.342-.595.314 0 .471-.113.471-.341 0-.374.101-.561.301-.561.343 0 .514-.098.514-.294v-.26c0-.146-.044-.23-.13-.254h-4.494c-.201 0-.3.128-.3.384z"/><path d="M79.079 12.997h.8c.255 0 .383.098.383.294v.213c0 .195-.098.293-.295.293h-.977c-.15 0-.25-.054-.294-.164v-.342c0-.196.127-.294.383-.294zm.588-3.94h1.101c.2 0 .3.128.3.383v.041c0 .256-.14.383-.423.383h-.719c-.328 0-.512-.07-.553-.211v-.425c.045-.114.143-.17.294-.17zm.3 2.066h.082c.256 0 .384.098.384.294v.336c0 .044-.057.102-.17.17h-.426c-.196 0-.294-.098-.294-.293v-.302c.064-.137.206-.205.424-.205zm.446-6.026h.082c.255 0 .382.098.382.294v.335c0 .046-.057.103-.17.171h-.424c-.197 0-.295-.098-.295-.294v-.3c.064-.138.205-.206.425-.206zm.95-.78h7.62c.14.064.212.206.212.424v.848c0 .283-.17.424-.506.424h-5.8c-.17 0-.254.085-.254.254v1.99c0 .169.112.253.335.253h4.364c.11.046.165.144.165.294v.972c0 .282-.14.424-.417.424h-4.324c-.04 0-.082.043-.123.13v1.86c0 .169.084.253.253.253h6.013c.195 0 .294.17.294.513v.76c0 .218-.071.36-.212.423h-7.62c-.15 0-.248-.056-.294-.17v-3.851c.014-.17.055-.254.123-.254h1.101c.228 0 .342-.084.342-.252v-.425c0-.04-.044-.084-.13-.13h-1.272c-.041 0-.096-.057-.164-.17V6.053c0-.113.169-.17.506-.17h.17c.055 0 .083-.028.083-.083v-.554c0-.04-.043-.082-.13-.123h-.253c-.214 0-.34-.056-.376-.17v-.466c.046-.114.143-.171.294-.171zm3.727 1.909h.082c.256 0 .384.098.384.294v.335c0 .046-.057.102-.17.171h-.426c-.196 0-.293-.098-.293-.294V6.43c.063-.137.205-.205.423-.205z"/></g></svg>